<svg width="1920" height="640" viewBox="0 0 1920 640" fill="none" xmlns="http://www.w3.org/2000/svg">
<rect width="1920" height="640" fill="#D9D9D9"/>
<g filter="url(#filter0_i_25_31)">
<path d="M321.562 114.021C435.022 112.4 528.321 203.041 529.978 316.498C531.635 429.955 441.025 523.283 327.565 524.977C214.06 526.67 120.68 436.009 119.022 322.502C117.364 208.994 208.055 115.644 321.562 114.021Z" fill="#2C2C2C"/>
<path d="M312.715 126.243C335.487 124.802 356.133 127.525 377.897 133.763C377.582 144.806 377.902 156.308 377.679 167.49C374.404 172.438 368.619 177.716 364.461 182.251C355.333 192.211 349.044 200.861 343.341 212.97C344.814 214.977 346.185 217.294 347.513 219.421C354.001 200.318 370.135 186.407 382.398 171.216C384.928 168.084 384.157 160.858 384.133 156.736L384.07 135.758C409.517 143.26 435.254 160.255 454.587 178.156C448.399 177.147 442.091 176.41 435.816 176.381C395.732 176.193 362.262 208.267 358.09 247.64C357.218 255.85 357.48 264.485 357.48 272.826L357.504 307.099C360.401 311.703 362.761 315.454 365.251 320.33L449.785 320.368C451.297 316.897 452.964 315.17 455.391 312.35C456.064 303.299 456.719 299.12 467.218 300.898C469.176 297.192 470.489 293.18 471.099 289.035C472.921 276.567 467.858 265.161 460.532 255.398C460.74 260.073 460.44 271.105 455.265 273.024C453.031 272.18 454.131 271.694 454.286 268.864C455.58 245.487 432.619 243.525 437.599 219.013C411.503 236.627 438.937 252.128 421.741 268.702C421.169 258.542 421.354 252.966 411.242 248.156C417.158 266.993 397.569 274.23 402.918 294.846C405.321 304.1 410.471 309.188 418.301 314.064L390.994 314.072C390.756 302.277 390.96 289.578 390.945 277.75C390.936 268.472 390.291 253.548 392.413 244.911C395.34 232.949 402.947 222.662 413.529 216.363C423.51 210.375 436.025 208.272 447.343 211.155C459.238 214.097 469.476 221.644 475.809 232.137C478.948 237.392 481.07 243.193 482.064 249.235C482.723 253.354 483.396 310.987 482.694 313.717L481.322 314.162C481.109 315.088 483.973 319.026 484.772 320.355L502.864 320.356L515.156 320.372C515.185 324.035 514.933 328.344 514.812 332.052C505.403 332.018 494.361 331.701 485.126 332.181C483.832 334.748 482.955 335.948 481.303 338.252L514.241 338.269C502.283 432.965 436.146 501.395 340.318 512.339L340.332 463.78L206.973 463.847L206.962 471.222C203.013 468.117 199.639 465.081 195.917 461.734C196.339 443.663 197.696 425.433 198.091 407.4C184.791 400.466 175.988 394.702 175.506 378.519L198.861 378.507C198.664 373.842 199.002 367.943 199.45 363.309C187.497 361.654 174.12 358.027 162.64 354.278C157.367 352.556 151.599 349.969 146.385 348.541C147.754 357.223 148.611 365.062 150.471 373.817C155.334 396.71 162.958 414.772 172.644 435.744C150.356 407.12 136.853 369.018 134.258 332.977C130.758 281.559 147.633 230.829 181.236 191.754C214.524 153.194 261.885 129.596 312.715 126.243Z" fill="#D9D9D9"/>
<path d="M230.055 215.371C231.218 215.992 234.518 223.185 235.145 224.724C242.999 243.978 251.105 269.809 250.069 290.513C246.514 292.951 246.236 298.645 245.171 302.89C243.02 311.461 240.565 318.082 236.159 325.701C231.901 321.05 227.69 316.355 223.527 311.618C229.697 305.274 234.825 298.405 238.296 290.265C232.229 297.77 223.94 305.205 216.705 311.589C225.552 319.971 234.583 331.691 243.891 340.6C249.364 340.96 261.105 341.597 263.629 347.565C260.613 351.82 254.224 348.68 259.156 361.525C260.447 364.888 262.425 366.317 264.644 368.896C265.674 378.469 243.835 376.027 239.657 369.962C235.575 364.035 234.813 360.423 232.896 353.848C222.016 343.734 208.998 335.314 198.996 324.171C195.649 320.441 193.944 317.745 193.808 312.734C195.294 302.865 214.688 276.571 221.597 269.234C216.12 271.949 209.96 276.834 206.36 281.566C200.393 289.409 185.474 308.031 189.718 318.622C193.586 328.276 209.119 340.368 217.242 346.981C214.076 348.738 201.241 354.46 198.136 353.998C181.039 351.457 161.663 345.927 145.939 338.721C145.245 331.826 145.73 323.122 146.302 316.273C150.458 266.51 178.579 224.236 230.055 215.371Z" fill="#2C2C2C"/>
<path d="M219.45 232.179L219.727 232.243L219.778 232.632C215.87 234.798 212.116 237.232 208.544 239.917C179.82 261.366 164.871 290.927 159.831 326.016L159.582 326.335C158.997 324.795 159.365 321.156 159.464 319.414C161.77 278.753 181.537 247.704 219.45 232.179Z" fill="#D9D9D9"/>
<path d="M180.491 383.191C198.821 382.727 219.306 383.194 237.826 383.245C238.442 390.857 239.202 398.458 240.105 406.043C241.01 398.767 241.596 390.593 242.284 383.232L367.122 383.234C367.171 385.848 368.087 393.076 364.385 393.63C346.254 396.343 308.586 401.428 303.615 423.237C303.323 436.87 316.253 441.69 327.673 442.983L327.649 458.947L219.618 458.944C219.719 453.67 219.706 448.263 219.746 442.978C230.546 442.107 245.605 436.268 243.77 422.377C242.533 413.017 228.744 412.34 221.496 410.37C207.504 406.566 183.949 399.67 180.491 383.191Z" fill="#2C2C2C"/>
<path d="M270.717 438.161C280.886 437.392 286.722 441.041 293.351 448.168C287.252 445.023 285.041 443.956 278.408 442.517C268.628 441.037 262.12 443.851 253.871 448.277C259.431 442.534 262.666 439.633 270.717 438.161Z" fill="#D9D9D9"/>
<path d="M258.693 176.06C277.997 175.182 294.039 184.256 309.015 195.223C314.052 195.573 318.471 195.732 323.205 197.775C325.986 198.964 328.496 200.709 330.584 202.903C335.589 208.278 350.939 234.186 347.91 241.22C347.45 241.792 346.699 242.568 345.967 242.673C336.171 244.081 325.497 242.316 315.288 243.038C304.546 243.553 294.193 246.756 283.469 247.222C278.805 247.425 275.164 242.004 271.175 243.492L270.827 244.319C272.026 248.358 280.119 251.669 283.995 251.578C292.374 251.396 300.706 248.45 309.061 247.748C320.099 246.819 331.403 247.204 342.489 247.275C343.821 247.186 344.083 247.142 345.352 247.518L345.565 248.316C341.486 257.47 323.796 265.217 314.537 267.39C299.773 270.856 291.992 270.539 281.018 282.077C285.436 279.966 287.722 279 292.416 277.766C291.87 283.77 291.173 289.759 290.323 295.727C279.388 295.121 269.466 294.333 258.696 292.033C258.456 263.508 250.669 239.169 238.639 213.74C260.759 211.041 245.345 194.067 251.278 180.924C252.506 178.203 255.895 176.802 258.693 176.06Z" fill="#2C2C2C"/>
<path d="M295.799 201.368C304.913 199.926 313.491 206.087 315.031 215.184C316.577 224.282 310.509 232.926 301.429 234.569C295.466 235.647 289.384 233.439 285.502 228.786C281.62 224.132 280.539 217.752 282.669 212.08C284.799 206.407 289.814 202.316 295.799 201.368Z" fill="#D9D9D9"/>
<path d="M304.391 213.485C307.583 212.961 310.595 215.122 311.119 218.314C311.644 221.505 309.481 224.517 306.29 225.041C303.099 225.565 300.087 223.403 299.563 220.212C299.039 217.021 301.2 214.01 304.391 213.485Z" fill="#2C2C2C"/>
<path d="M331.829 229.456C335.633 230.071 336.587 231.032 336.597 234.84C334.746 234.665 333.913 234.503 332.508 233.283C331.568 231.676 331.679 231.243 331.829 229.456Z" fill="#D9D9D9"/>
<path d="M392.307 411.579C394.298 411.364 396.764 411.521 398.761 411.809C428.573 415.983 433.84 452.734 414.323 471.432C396.217 488.783 368.464 489.022 345.246 485.254L345.255 466.116C366.637 472.255 401.968 474.769 410.985 448.732C411.072 448.357 411.15 447.981 411.218 447.603C412.245 441.817 411.45 436.264 407.971 431.408C405.137 427.465 400.863 424.802 396.072 423.996C387.704 422.614 378.668 428.098 377.476 436.679C377.035 440.009 377.941 443.376 379.986 446.04C387.118 455.311 401.004 448.269 395.354 438.58C393.256 434.974 388.227 439.654 385.824 439.66L385.291 438.714C384.879 422.096 415.331 433.63 401.963 452.31C399.274 456.095 395.18 458.644 390.597 459.388C379.046 461.218 368.381 452.948 366.782 441.363C365.809 434.533 367.693 427.602 372.001 422.212C377.326 415.424 384.017 412.627 392.307 411.579Z" fill="#2C2C2C"/>
<path d="M352.281 310.765L352.664 310.785C355.024 312.036 363.338 326.16 364.297 329.68C364.859 331.75 368.212 328.155 370.678 334.027C371.807 336.782 371.802 339.87 370.659 342.62C369.666 343.974 368.382 344.106 366.759 344.514C367.626 348.712 370.359 358.162 369.36 361.695C366.681 365.604 350.687 368.782 346.094 366.719C343.759 364.661 342.227 352.688 341.544 348.851C326.044 352.434 309.741 355.424 294.126 358.694C284.657 360.273 274.875 362.875 265.211 364.566C262.111 360.471 261.442 357.923 260.229 353.093C263.002 352.284 265.778 351.672 268.61 351.119C292.167 346.528 315.608 341.059 339.185 336.615C336.665 316.622 329.422 314.834 352.281 310.765Z" fill="#2C2C2C"/>
<path d="M468.851 319.784C468.909 315.529 467.277 307.581 470.775 304.953C472.621 304.914 472.001 304.686 473.299 305.612C474.627 308.081 474.355 311.428 474.462 314.388C476.536 316.425 478.59 318.384 479.937 320.999C480.286 321.669 480.576 322.369 480.799 323.091C483.779 332.758 475.736 334.044 474.452 340.817C474.869 343.515 477.752 347.252 477.994 349.876C479.874 370.241 481.449 390.605 483.488 410.954C483.745 413.476 483.769 416.703 481.221 417.901C476.022 417.208 476.332 406.958 476.027 403.2L474.258 382.949C473.309 371.443 473.381 354.111 467.553 345.008C461.956 350.823 462.063 363.835 461.336 371.775L458.4 404.159C458.09 407.708 458.686 421.544 451.704 416.031C451.147 414.681 451.021 412.849 451.166 411.403C453.211 390.615 454.49 369.746 456.743 348.982C456.782 347.114 460.517 341.634 460.227 340.135C459.18 334.77 452.591 333.157 453.099 326.29C453.555 320.206 456.007 318.18 460.033 314.298C460.057 310.204 459.088 307.344 462.305 304.677C463.124 304.818 463.861 305.084 464.65 305.337C466.462 307.487 465.774 316.836 465.736 319.931C457.441 324.695 460.062 329.391 467.131 333.316C474.738 329.787 476.875 325.013 468.851 319.784Z" fill="#2C2C2C"/>
<path d="M466.075 337.102C467.189 336.434 468.633 336.779 469.326 337.879C470.014 338.979 469.699 340.43 468.613 341.145C467.892 341.62 466.971 341.668 466.201 341.269C465.435 340.87 464.941 340.087 464.917 339.222C464.888 338.358 465.333 337.546 466.075 337.102Z" fill="#D9D9D9"/>
<path d="M299.666 275.506C300.117 275.581 301.087 276.067 301.177 276.292C304.108 283.574 307.313 294.311 309.705 301.46C314.058 314.471 323.152 317.536 332.838 325.657C333.148 328.004 333.681 330.669 334.088 333.029C327.881 334.453 321.645 335.764 315.39 336.961C313.403 336.04 311.367 334.651 309.505 333.46C305.312 330.374 301.944 327.754 297.948 324.407L295.062 341.029L288.65 342.577C291.625 326.295 294.072 309.921 295.988 293.48C296.583 288.459 296.488 282.426 297.004 277.324C297.082 276.546 298.769 275.96 299.666 275.506Z" fill="#2C2C2C"/>
<path d="M290.209 364.078L290.795 363.97L291.404 364.423C291.61 366.569 290.744 370.085 290.306 372.316L352.068 372.378C360.334 372.375 368.415 372.376 376.822 372.513C382.055 372.042 385.325 369.392 390.897 369.889C405.84 371.222 421.664 371.395 436.35 374.175C437.362 374.367 437.677 374.862 438.007 375.669C435.909 377.954 429.135 378.065 425.971 378.337C413.602 379.118 400.907 380.986 388.455 381.34C385.315 381.429 381.575 378.882 379.157 378.681C374.787 378.319 370.538 378.584 365.712 378.53C336.68 378.205 307.43 379.224 278.469 378.203C276.23 378.124 276.724 374.828 277.408 373.365C278.704 372.264 282.046 372.546 283.915 372.53C284.803 369.865 284.429 368.05 285.794 365.581C286.929 364.239 288.43 364.294 290.209 364.078Z" fill="#2C2C2C"/>
<path d="M374.753 332.063C399.178 331.63 425.041 331.944 449.543 332.047C450.609 334.248 452.063 336.276 453.429 338.308C427.701 337.943 401.343 338.277 375.543 338.224L374.753 332.063Z" fill="#2C2C2C"/>
<path d="M229.457 359.264C230.098 359.782 234.094 369.137 235.014 370.977C231.36 372.098 226.155 373.14 222.325 374.017C217.543 373.506 215.332 366.226 217.851 362.689C219.526 360.336 226.434 359.748 229.457 359.264Z" fill="#2C2C2C"/>
<path d="M254.634 297.788C256.027 297.15 257.656 297.311 258.897 298.21C260.139 299.108 260.801 300.606 260.63 302.129C260.459 303.652 259.482 304.965 258.072 305.567C255.932 306.48 253.454 305.504 252.513 303.375C251.572 301.246 252.517 298.756 254.634 297.788Z" fill="#2C2C2C"/>
<path d="M434.775 182.456C441.825 182.138 460.92 184.191 465.828 189.644C497.026 224.331 513.01 267.76 515.089 314.064C506.358 314.106 497.622 314.102 488.886 314.052C488.625 302.044 489.007 289.245 488.935 277.183C488.814 258.47 490.844 242.499 479.409 226.172C470.378 213.282 459.05 206.989 443.894 204.203C441.689 203.951 439.47 203.795 437.246 203.737C424.358 203.521 409.876 209.196 400.811 218.33C382.525 236.748 384.628 253.604 384.666 277.082C384.725 289.412 384.71 301.743 384.632 314.073L363.774 314.1C363.527 301.918 363.881 289.205 363.653 277.199C363.125 249.531 363.328 228.502 382.951 206.473C396.857 190.862 413.989 183.584 434.775 182.456Z" fill="#D9D9D9"/>
<path d="M437.483 264.865C448.598 273.138 435.109 288.868 443.026 293.674C449.223 294.256 449.499 290.467 450.168 285.664L450.337 285.949C456.331 296.236 457.654 307.582 445.88 314.1L435.516 314.118L426.208 314.05C415.883 306.743 415.568 296.979 422.109 286.87C422.352 289.387 422.914 294.422 425.196 295.849C426.111 295.29 426.32 290.025 427.487 287.43L427.633 287.108C431.606 278.28 438.312 276.927 437.483 264.865Z" fill="#D9D9D9"/>
</g>
<g filter="url(#filter1_i_25_31)">
<path d="M576.396 147.8H657.899V162.526H625.146V238H609.149V162.526H576.396V147.8ZM715.917 239.27C691.965 239.27 678.974 230.891 676.942 214.133C676.731 212.313 676.625 210.007 676.625 207.214V206.389V147.8H692.621V204.992C692.621 208.166 692.917 210.832 693.51 212.99C694.145 215.106 695.393 217.053 697.255 218.83C701.36 222.766 707.58 224.733 715.917 224.733C721.884 224.733 726.835 223.675 730.771 221.56C734.706 219.444 737.224 216.46 738.324 212.609C738.874 210.747 739.149 208.208 739.149 204.992V147.8H755.019C755.019 161.003 755.019 171.815 755.019 180.236C755.061 188.615 755.082 193.99 755.082 196.359C755.082 198.687 755.082 200.57 755.082 202.009C755.124 203.448 755.146 204.632 755.146 205.563C755.146 207.552 755.082 209.351 754.955 210.959C754.87 212.525 754.532 214.535 753.939 216.989C753.389 219.444 752.606 221.623 751.591 223.527C750.618 225.389 749.136 227.357 747.147 229.431C745.201 231.504 742.873 233.218 740.165 234.572C737.499 235.926 734.092 237.048 729.945 237.937C725.798 238.825 721.122 239.27 715.917 239.27ZM786.947 147.8H806.371L836.332 199.597L866.737 147.8H885.209V238H869.213V170.524L843.568 212.165H828.461L802.943 170.524V238H786.947V147.8ZM947.733 161.257H932.943V186.267C942.126 186.055 948.537 185.632 952.177 184.997C960.979 183.389 965.676 179.729 966.269 174.016C966.311 173.55 966.332 173.085 966.332 172.619C966.332 171.265 966.099 170.017 965.634 168.874C965.168 167.689 964.322 166.483 963.095 165.256C961.91 164.029 960.006 163.055 957.382 162.336C954.758 161.617 951.542 161.257 947.733 161.257ZM948.749 196.423C948.41 196.423 943.142 196.656 932.943 197.121V223.273H947.162C948.855 223.273 950.294 223.273 951.479 223.273C952.706 223.231 954.377 223.125 956.493 222.956C958.609 222.787 960.429 222.554 961.952 222.258C963.476 221.919 965.147 221.433 966.967 220.798C968.786 220.163 970.246 219.401 971.347 218.513C972.489 217.624 973.441 216.503 974.203 215.148C975.007 213.752 975.409 212.186 975.409 210.451C975.409 206.092 972.997 202.665 968.173 200.168C963.391 197.671 956.916 196.423 948.749 196.423ZM916.947 147.8H951.352C955.202 147.8 958.715 148.096 961.889 148.688C965.105 149.281 967.813 150.064 970.014 151.037C972.214 151.968 974.161 153.111 975.854 154.465C977.589 155.777 978.943 157.131 979.916 158.527C980.932 159.882 981.757 161.341 982.392 162.907C983.026 164.431 983.45 165.827 983.661 167.097C983.873 168.324 983.979 169.551 983.979 170.778C983.979 173.656 983.196 176.576 981.63 179.538C980.064 182.5 978.096 184.997 975.727 187.028C980.466 188.975 984.254 192.022 987.089 196.169C989.966 200.274 991.405 204.781 991.405 209.689C991.405 211.086 991.257 212.525 990.961 214.006C990.707 215.445 990.178 217.116 989.374 219.021C988.57 220.925 987.512 222.744 986.2 224.479C984.931 226.172 983.196 227.865 980.995 229.558C978.795 231.25 976.256 232.71 973.378 233.938C970.5 235.122 966.946 236.096 962.714 236.857C958.524 237.619 953.912 238 948.876 238H916.947V147.8ZM1017.75 147.8H1033.74V223.337H1079.45V238H1017.75V147.8ZM1100.14 238V147.8H1163.43V162.526H1116.2V184.172H1159.94V198.898H1116.2V223.273H1163.43V238H1100.14ZM1182.53 147.8H1199.42L1220.17 217.116L1246.26 147.8H1260.99L1282.45 217.116L1307.84 147.8H1324.72L1290.13 238H1274.83L1253.12 169.001L1227.6 238H1212.3L1182.53 147.8ZM1345.16 238V147.8H1408.45V162.526H1361.22V184.172H1404.96V198.898H1361.22V223.273H1408.45V238H1345.16ZM1437.07 238V147.8H1500.36V162.526H1453.13V184.172H1496.87V198.898H1453.13V223.273H1500.36V238H1437.07ZM1561.93 162.526H1545.49V223.273H1557.11C1560.03 223.273 1562.44 223.231 1564.34 223.146C1566.25 223.062 1568.75 222.766 1571.83 222.258C1574.92 221.75 1577.55 221.052 1579.71 220.163C1581.91 219.232 1584.17 217.857 1586.5 216.037C1588.87 214.175 1590.84 211.932 1592.4 209.309C1595.28 204.484 1596.72 198.835 1596.72 192.36C1596.72 188.636 1596.19 185.209 1595.13 182.077C1594.12 178.946 1592.74 176.322 1591 174.206C1589.31 172.048 1587.3 170.165 1584.97 168.557C1582.69 166.949 1580.36 165.7 1577.99 164.812C1575.62 163.923 1573.19 163.309 1570.69 162.971C1568.58 162.674 1565.66 162.526 1561.93 162.526ZM1561.49 147.8C1567.16 147.8 1572.39 148.244 1577.17 149.133C1581.95 150.021 1586.07 151.228 1589.54 152.751C1593.01 154.274 1596.1 156.115 1598.81 158.273C1601.52 160.432 1603.74 162.738 1605.48 165.192C1607.21 167.647 1608.63 170.313 1609.73 173.19C1610.87 176.068 1611.66 178.903 1612.08 181.696C1612.54 184.447 1612.78 187.303 1612.78 190.266C1612.78 194.159 1612.46 197.925 1611.83 201.564C1611.19 205.161 1610.07 208.843 1608.46 212.609C1606.85 216.333 1604.78 219.698 1602.24 222.702C1599.74 225.664 1596.46 228.352 1592.4 230.764C1588.38 233.133 1583.77 234.89 1578.56 236.032C1575.9 236.625 1572.94 237.09 1569.68 237.429C1566.42 237.725 1563.73 237.894 1561.62 237.937C1559.54 237.979 1556.62 238 1552.86 238H1529.5V147.8H1561.49Z" fill="#434242"/>
</g>
<g filter="url(#filter2_i_25_31)">
<path d="M600.015 285.526V307.172H642.798V321.898H600.015V361H583.955V270.8H646.606V285.526H600.015ZM716.494 269.848C725.677 269.848 733.844 271.646 740.996 275.243C748.148 278.84 753.776 284.088 757.881 290.985C761.986 297.841 764.038 305.818 764.038 314.916C764.038 324.141 762.028 332.33 758.008 339.481C753.988 346.591 748.338 352.113 741.06 356.049C733.781 359.984 725.423 361.952 715.986 361.952C709.766 361.952 703.862 361 698.276 359.096C692.69 357.149 687.676 354.335 683.232 350.653C678.831 346.929 675.319 342.105 672.695 336.181C670.114 330.256 668.823 323.57 668.823 316.122C668.823 306.854 670.854 298.708 674.917 291.684C678.979 284.617 684.608 279.221 691.802 275.497C698.996 271.731 707.227 269.848 716.494 269.848ZM724.81 285.653C721.89 284.892 718.906 284.511 715.859 284.511C712.812 284.511 709.85 284.892 706.973 285.653C704.095 286.373 701.323 287.536 698.657 289.145C696.034 290.71 693.727 292.657 691.738 294.984C689.749 297.312 688.162 300.189 686.978 303.617C685.793 307.003 685.2 310.748 685.2 314.853C685.2 324.628 688.226 332.478 694.277 338.402C700.329 344.327 707.882 347.289 716.938 347.289C720.705 347.289 724.344 346.675 727.856 345.448C731.411 344.221 734.691 342.401 737.695 339.989C740.7 337.577 743.112 334.298 744.932 330.15C746.751 326.003 747.661 321.285 747.661 315.995C747.661 311.679 747.026 307.743 745.757 304.188C744.487 300.591 742.795 297.608 740.679 295.238C738.605 292.868 736.172 290.858 733.379 289.208C730.628 287.558 727.772 286.373 724.81 285.653ZM860.903 296.635C860.903 299.512 860.544 302.263 859.824 304.887C859.147 307.468 858.047 309.965 856.523 312.377C855.042 314.789 852.99 316.947 850.366 318.852C847.785 320.756 844.717 322.237 841.162 323.295L868.394 361H847.573L822.31 326.024H807.012V361H791.016V270.8H829.419C831.323 270.8 833.058 270.863 834.624 270.99C836.232 271.075 838.158 271.329 840.4 271.752C842.686 272.133 844.696 272.662 846.431 273.339C848.208 274.016 850.028 275.01 851.89 276.322C853.794 277.634 855.36 279.179 856.587 280.956C857.856 282.691 858.893 284.913 859.697 287.621C860.501 290.287 860.903 293.292 860.903 296.635ZM807.012 285.463V311.298H821.738C824.277 311.298 826.52 311.213 828.467 311.044C830.413 310.875 832.424 310.536 834.497 310.028C836.571 309.478 838.263 308.738 839.575 307.807C840.929 306.876 842.03 305.585 842.876 303.935C843.765 302.284 844.209 300.338 844.209 298.095C844.209 289.674 837.713 285.463 824.722 285.463H807.012ZM976.177 347.924C967.417 357.488 954.891 362.27 938.599 362.27C931.659 362.27 925.311 361.381 919.556 359.604C913.843 357.784 909.061 355.393 905.21 352.431C901.359 349.426 898.101 345.914 895.435 341.894C892.811 337.873 890.907 333.705 889.722 329.389C888.537 325.03 887.944 320.565 887.944 315.995C887.944 311.213 888.6 306.601 889.912 302.157C891.224 297.714 893.255 293.546 896.006 289.652C898.799 285.759 902.142 282.374 906.035 279.496C909.971 276.576 914.71 274.291 920.254 272.641C925.798 270.948 931.849 270.102 938.408 270.102C950.384 270.102 961.154 272.768 970.718 278.1L972.939 279.369L966.274 291.938L963.989 290.731C960.985 289.208 957.218 287.854 952.69 286.669C948.162 285.442 943.613 284.828 939.043 284.828C934.557 284.828 930.22 285.526 926.03 286.923C921.841 288.319 918.096 290.287 914.795 292.826C911.536 295.365 908.913 298.603 906.924 302.538C904.977 306.431 904.004 310.705 904.004 315.36C904.004 321.496 905.612 327.019 908.828 331.928C912.044 336.837 916.488 340.666 922.158 343.417C927.871 346.125 934.282 347.479 941.392 347.479C949.178 347.479 955.547 345.723 960.498 342.211V324.882H932.251V310.79H976.177V347.924ZM1004.17 361V270.8H1067.46V285.526H1020.23V307.172H1063.96V321.898H1020.23V346.273H1067.46V361H1004.17Z" fill="#434242"/>
</g>
<g filter="url(#filter3_i_25_31)">
<path d="M590.336 483.324C588.656 483.324 586.371 483.852 583.48 484.906V506H576.273V477.055H581.635L582.455 478.959C585.912 477.318 589.32 476.498 592.68 476.498C596.039 476.498 598.666 477.465 600.561 479.398C604.193 477.484 608.07 476.527 612.191 476.527C613.988 476.527 615.57 476.742 616.938 477.172C618.305 477.602 619.398 478.178 620.219 478.9C621.059 479.623 621.732 480.531 622.24 481.625C622.768 482.699 623.129 483.812 623.324 484.965C623.52 486.098 623.617 487.387 623.617 488.832V506H616.41V488.92C616.41 487.084 615.922 485.697 614.945 484.76C613.988 483.803 612.436 483.324 610.287 483.324C608.471 483.324 606.127 483.852 603.256 484.906C603.432 485.922 603.52 487.299 603.52 489.037V506H596.312V488.803C596.312 485.15 594.32 483.324 590.336 483.324ZM649.574 476.498C651.254 476.498 652.758 476.684 654.086 477.055C655.434 477.406 656.537 477.865 657.396 478.432C658.275 478.979 659.027 479.701 659.652 480.6C660.297 481.479 660.785 482.328 661.117 483.148C661.449 483.949 661.703 484.916 661.879 486.049C662.074 487.182 662.191 488.139 662.23 488.92C662.27 489.701 662.289 490.629 662.289 491.703V494.984H640.521C640.932 496.43 642.094 497.689 644.008 498.764C645.922 499.818 648.441 500.346 651.566 500.346C653.773 500.346 656.02 500.014 658.305 499.35L659.506 498.998L660.941 504.564L659.887 504.916C656.625 506.029 653.148 506.586 649.457 506.586C646.879 506.586 644.594 506.303 642.602 505.736C640.609 505.17 639.008 504.438 637.797 503.539C636.605 502.641 635.619 501.557 634.838 500.287C634.076 499.018 633.549 497.748 633.256 496.479C632.963 495.209 632.816 493.852 632.816 492.406C632.816 490.258 633.119 488.295 633.725 486.518C634.35 484.721 635.189 483.217 636.244 482.006C637.318 480.775 638.568 479.74 639.994 478.9C641.439 478.061 642.963 477.455 644.564 477.084C646.166 476.693 647.836 476.498 649.574 476.498ZM648.373 483.061C646.127 483.061 644.33 483.627 642.982 484.76C641.635 485.873 640.834 487.27 640.58 488.949H655.199C655.043 486.84 654.379 485.336 653.207 484.438C652.035 483.52 650.424 483.061 648.373 483.061ZM690.648 505.473C687.777 506.215 685.375 506.586 683.441 506.586C681.586 506.586 679.984 506.4 678.637 506.029C677.309 505.658 676.264 505.189 675.502 504.623C674.74 504.037 674.135 503.295 673.686 502.396C673.256 501.479 672.973 500.59 672.836 499.73C672.699 498.871 672.631 497.865 672.631 496.713V483.236H668.148V477.055H672.631V468.764H679.838V477.055H690.473V483.236H679.838V496.215C679.838 496.703 679.916 497.172 680.072 497.621C680.248 498.07 680.521 498.52 680.893 498.969C681.264 499.418 681.82 499.779 682.562 500.053C683.305 500.307 684.184 500.434 685.199 500.434C685.727 500.434 687.152 500.238 689.477 499.848L690.619 499.643L691.762 505.18L690.648 505.473ZM711.127 476.498C713.236 476.498 715.082 476.693 716.664 477.084C718.266 477.455 719.555 477.953 720.531 478.578C721.508 479.203 722.299 479.984 722.904 480.922C723.51 481.859 723.92 482.816 724.135 483.793C724.369 484.75 724.486 485.824 724.486 487.016V506H719.096L718.275 504.096C715.678 505.756 712.719 506.586 709.398 506.586C705.785 506.586 702.855 505.736 700.609 504.037C698.363 502.338 697.24 500.326 697.24 498.002C697.24 496.557 697.602 495.297 698.324 494.223C699.066 493.148 700.033 492.289 701.225 491.645C702.416 491 703.91 490.473 705.707 490.062C707.504 489.652 709.301 489.369 711.098 489.213C712.914 489.057 714.965 488.969 717.25 488.949V487.953C717.25 487.211 717.182 486.596 717.045 486.107C716.928 485.619 716.654 485.102 716.225 484.555C715.795 484.008 715.072 483.598 714.057 483.324C713.061 483.031 711.781 482.885 710.219 482.885C708.031 482.885 705.131 483.314 701.518 484.174L700.346 484.496L698.852 478.725L699.877 478.373C703.49 477.123 707.24 476.498 711.127 476.498ZM717.25 498.529V494.398H716.547C712.602 494.398 709.662 494.633 707.729 495.102C705.814 495.57 704.857 496.361 704.857 497.475C704.857 498.178 705.443 498.842 706.615 499.467C707.787 500.092 709.223 500.404 710.922 500.404C713.324 500.404 715.434 499.779 717.25 498.529ZM733.715 483.471H761.312V489.945H733.715V483.471ZM769.047 491.996C769.047 487.035 770.512 483.207 773.441 480.512C776.391 477.816 780.326 476.469 785.248 476.469C787.533 476.469 789.809 476.801 792.074 477.465V461.732H799.281V506H793.949L793.363 504.652C790.531 505.941 787.504 506.586 784.281 506.586C782.758 506.586 781.293 506.43 779.887 506.117C778.48 505.824 777.104 505.316 775.756 504.594C774.428 503.871 773.275 502.973 772.299 501.898C771.322 500.805 770.531 499.408 769.926 497.709C769.34 496.01 769.047 494.105 769.047 491.996ZM786.127 500.229C788.158 500.229 790.141 499.887 792.074 499.203V483.529C790.004 482.943 788.002 482.65 786.068 482.65C785.189 482.65 784.34 482.719 783.52 482.855C782.699 482.973 781.82 483.227 780.883 483.617C779.965 483.988 779.164 484.477 778.48 485.082C777.816 485.688 777.26 486.527 776.811 487.602C776.361 488.676 776.137 489.906 776.137 491.293C776.137 492.699 776.352 493.949 776.781 495.043C777.23 496.137 777.797 497.006 778.48 497.65C779.164 498.275 779.965 498.793 780.883 499.203C781.82 499.613 782.709 499.887 783.549 500.023C784.389 500.16 785.248 500.229 786.127 500.229ZM809.682 464.369H817.768V472.309H809.682V464.369ZM810.121 477.055H817.328V506H810.121V477.055ZM846.244 497.357C846.205 496.869 845.824 496.439 845.102 496.068C844.398 495.697 843.49 495.365 842.377 495.072C841.264 494.779 840.043 494.477 838.715 494.164C837.387 493.852 836.059 493.471 834.73 493.021C833.422 492.553 832.221 492.016 831.127 491.41C830.033 490.785 829.145 489.975 828.461 488.979C827.777 487.963 827.436 486.811 827.436 485.521C827.436 484.76 827.572 483.998 827.846 483.236C828.139 482.455 828.656 481.654 829.398 480.834C830.141 479.994 831.078 479.262 832.211 478.637C833.344 478.012 834.857 477.504 836.752 477.113C838.646 476.703 840.785 476.498 843.168 476.498C844.574 476.498 845.844 476.576 846.977 476.732C848.109 476.869 848.91 476.996 849.379 477.113C849.848 477.23 850.561 477.436 851.518 477.729L852.719 478.08L850.727 483.998L849.613 483.705C847.074 483.002 844.604 482.65 842.201 482.65C840.99 482.65 839.926 482.738 839.008 482.914C838.09 483.07 837.387 483.266 836.898 483.5C836.43 483.715 836.049 483.979 835.756 484.291C835.463 484.584 835.277 484.838 835.199 485.053C835.121 485.248 835.082 485.434 835.082 485.609C835.082 486.059 835.424 486.469 836.107 486.84C836.811 487.211 837.719 487.553 838.832 487.865C839.945 488.158 841.166 488.48 842.494 488.832C843.842 489.164 845.189 489.574 846.537 490.062C847.885 490.551 849.115 491.107 850.229 491.732C851.342 492.357 852.24 493.158 852.924 494.135C853.627 495.111 853.979 496.205 853.979 497.416C853.979 498.256 853.852 499.066 853.598 499.848C853.363 500.629 852.895 501.439 852.191 502.279C851.508 503.119 850.619 503.852 849.525 504.477C848.432 505.082 846.957 505.59 845.102 506C843.246 506.391 841.117 506.586 838.715 506.586C834.965 506.586 831.225 505.824 827.494 504.301L826.41 503.861L828.578 498.002L829.691 498.441C833.188 499.75 836.283 500.404 838.979 500.404C841.479 500.404 843.314 500.16 844.486 499.672C845.658 499.164 846.244 498.393 846.244 497.357ZM881.723 505.473C878.852 506.215 876.449 506.586 874.516 506.586C872.66 506.586 871.059 506.4 869.711 506.029C868.383 505.658 867.338 505.189 866.576 504.623C865.814 504.037 865.209 503.295 864.76 502.396C864.33 501.479 864.047 500.59 863.91 499.73C863.773 498.871 863.705 497.865 863.705 496.713V483.236H859.223V477.055H863.705V468.764H870.912V477.055H881.547V483.236H870.912V496.215C870.912 496.703 870.99 497.172 871.146 497.621C871.322 498.07 871.596 498.52 871.967 498.969C872.338 499.418 872.895 499.779 873.637 500.053C874.379 500.307 875.258 500.434 876.273 500.434C876.801 500.434 878.227 500.238 880.551 499.848L881.693 499.643L882.836 505.18L881.723 505.473ZM895.639 478.607C898.686 477.201 901.938 476.498 905.395 476.498C907.602 476.498 909.613 476.918 911.43 477.758L912.455 478.227L910.17 484.232L909.027 483.793C907.66 483.266 906.176 483.002 904.574 483.002C902.016 483.002 899.555 483.461 897.191 484.379V506H889.984V477.055H894.789L895.639 478.607ZM917.318 464.369H925.404V472.309H917.318V464.369ZM917.758 477.055H924.965V506H917.758V477.055ZM935.805 461.732H943.012V477.758C945.531 476.898 948.1 476.469 950.717 476.469C952.201 476.469 953.627 476.615 954.994 476.908C956.381 477.182 957.748 477.68 959.096 478.402C960.443 479.125 961.605 480.033 962.582 481.127C963.578 482.201 964.379 483.607 964.984 485.346C965.609 487.064 965.922 489.018 965.922 491.205C965.922 496.01 964.467 499.779 961.557 502.514C958.646 505.229 954.701 506.586 949.721 506.586C946.771 506.586 944.047 506.078 941.547 505.062L941.137 506H935.805V461.732ZM948.783 482.855C946.85 482.855 944.926 483.178 943.012 483.822V499.555C944.984 500.121 946.947 500.404 948.9 500.404C949.799 500.404 950.668 500.336 951.508 500.199C952.348 500.062 953.217 499.809 954.115 499.438C955.033 499.047 955.824 498.549 956.488 497.943C957.172 497.338 957.729 496.527 958.158 495.512C958.607 494.477 958.832 493.295 958.832 491.967C958.832 490.502 958.607 489.203 958.158 488.07C957.709 486.938 957.143 486.059 956.459 485.434C955.775 484.789 954.965 484.262 954.027 483.852C953.09 483.441 952.201 483.178 951.361 483.061C950.541 482.924 949.682 482.855 948.783 482.855ZM996.537 477.055H1003.74V506H998.383L997.533 504.037C993.607 505.736 989.828 506.586 986.195 506.586C984.301 506.586 982.66 506.342 981.273 505.854C979.887 505.346 978.793 504.711 977.992 503.949C977.211 503.168 976.586 502.201 976.117 501.049C975.648 499.896 975.346 498.793 975.209 497.738C975.072 496.684 975.004 495.492 975.004 494.164V477.055H982.211V494.105C982.211 494.613 982.23 495.062 982.27 495.453C982.328 495.844 982.475 496.342 982.709 496.947C982.943 497.533 983.275 498.021 983.705 498.412C984.135 498.803 984.779 499.145 985.639 499.438C986.498 499.73 987.514 499.877 988.686 499.877C991.029 499.877 993.646 499.34 996.537 498.266V477.055ZM1033.6 505.473C1030.73 506.215 1028.32 506.586 1026.39 506.586C1024.54 506.586 1022.93 506.4 1021.59 506.029C1020.26 505.658 1019.21 505.189 1018.45 504.623C1017.69 504.037 1017.08 503.295 1016.63 502.396C1016.21 501.479 1015.92 500.59 1015.79 499.73C1015.65 498.871 1015.58 497.865 1015.58 496.713V483.236H1011.1V477.055H1015.58V468.764H1022.79V477.055H1033.42V483.236H1022.79V496.215C1022.79 496.703 1022.87 497.172 1023.02 497.621C1023.2 498.07 1023.47 498.52 1023.84 498.969C1024.21 499.418 1024.77 499.779 1025.51 500.053C1026.25 500.307 1027.13 500.434 1028.15 500.434C1028.68 500.434 1030.1 500.238 1032.43 499.848L1033.57 499.643L1034.71 505.18L1033.6 505.473ZM1041.42 464.369H1049.51V472.309H1041.42V464.369ZM1041.86 477.055H1049.07V506H1041.86V477.055ZM1074.67 476.498C1079.52 476.498 1083.41 477.777 1086.36 480.336C1089.33 482.875 1090.81 486.43 1090.81 491C1090.81 495.805 1089.3 499.604 1086.27 502.396C1083.27 505.189 1079.21 506.586 1074.12 506.586C1069.27 506.586 1065.39 505.277 1062.48 502.66C1059.59 500.023 1058.15 496.41 1058.15 491.82C1058.15 487.113 1059.62 483.383 1062.57 480.629C1065.54 477.875 1069.57 476.498 1074.67 476.498ZM1074.2 483.002C1072.7 483.002 1071.28 483.285 1069.96 483.852C1068.63 484.418 1067.5 485.336 1066.59 486.605C1065.69 487.875 1065.24 489.369 1065.24 491.088C1065.24 493.627 1066.12 495.766 1067.88 497.504C1069.63 499.223 1071.92 500.082 1074.73 500.082C1077.29 500.082 1079.43 499.33 1081.15 497.826C1082.87 496.322 1083.72 494.33 1083.72 491.85C1083.72 490.424 1083.44 489.135 1082.88 487.982C1082.31 486.811 1081.57 485.873 1080.65 485.17C1079.73 484.467 1078.71 483.93 1077.6 483.559C1076.49 483.188 1075.36 483.002 1074.2 483.002ZM1099.93 477.055H1104.96L1105.96 479.047C1109.98 477.328 1113.72 476.469 1117.18 476.469C1119.06 476.469 1120.68 476.723 1122.04 477.23C1123.41 477.738 1124.49 478.373 1125.27 479.135C1126.05 479.896 1126.66 480.863 1127.11 482.035C1127.58 483.188 1127.88 484.291 1128.02 485.346C1128.16 486.4 1128.23 487.592 1128.23 488.92V506H1121.02V489.008C1121.02 488.461 1120.99 487.992 1120.93 487.602C1120.89 487.191 1120.76 486.693 1120.52 486.107C1120.29 485.502 1119.96 485.014 1119.55 484.643C1119.14 484.252 1118.52 483.92 1117.68 483.646C1116.86 483.354 1115.88 483.207 1114.75 483.207C1112.46 483.207 1109.93 483.744 1107.13 484.818V506H1099.93V477.055ZM1158.64 475.326C1158.64 474.682 1158.64 474.164 1158.64 473.773C1158.66 473.383 1158.71 472.846 1158.78 472.162C1158.86 471.479 1158.97 470.912 1159.11 470.463C1159.26 470.014 1159.48 469.486 1159.75 468.881C1160.04 468.256 1160.38 467.748 1160.78 467.357C1161.19 466.947 1161.7 466.527 1162.33 466.098C1162.95 465.648 1163.67 465.297 1164.47 465.043C1165.27 464.77 1166.21 464.555 1167.31 464.398C1168.4 464.223 1169.61 464.135 1170.94 464.135C1173.38 464.135 1175.94 464.535 1178.62 465.336L1179.67 465.658L1178.47 471.518L1177.24 471.225C1175.38 470.775 1173.94 470.551 1172.9 470.551C1170.5 470.551 1168.72 470.951 1167.57 471.752C1166.42 472.553 1165.84 473.676 1165.84 475.121V477.055H1177.42V483.236H1165.84V506H1158.64V483.236H1153.86V477.055H1158.64V475.326ZM1189.66 478.607C1192.71 477.201 1195.96 476.498 1199.42 476.498C1201.62 476.498 1203.64 476.918 1205.45 477.758L1206.48 478.227L1204.19 484.232L1203.05 483.793C1201.68 483.266 1200.2 483.002 1198.6 483.002C1196.04 483.002 1193.58 483.461 1191.21 484.379V506H1184.01V477.055H1188.81L1189.66 478.607ZM1224 476.498C1226.11 476.498 1227.95 476.693 1229.54 477.084C1231.14 477.455 1232.43 477.953 1233.4 478.578C1234.38 479.203 1235.17 479.984 1235.78 480.922C1236.38 481.859 1236.79 482.816 1237.01 483.793C1237.24 484.75 1237.36 485.824 1237.36 487.016V506H1231.97L1231.15 504.096C1228.55 505.756 1225.59 506.586 1222.27 506.586C1218.66 506.586 1215.73 505.736 1213.48 504.037C1211.23 502.338 1210.11 500.326 1210.11 498.002C1210.11 496.557 1210.47 495.297 1211.2 494.223C1211.94 493.148 1212.9 492.289 1214.1 491.645C1215.29 491 1216.78 490.473 1218.58 490.062C1220.38 489.652 1222.17 489.369 1223.97 489.213C1225.79 489.057 1227.84 488.969 1230.12 488.949V487.953C1230.12 487.211 1230.05 486.596 1229.92 486.107C1229.8 485.619 1229.53 485.102 1229.1 484.555C1228.67 484.008 1227.94 483.598 1226.93 483.324C1225.93 483.031 1224.65 482.885 1223.09 482.885C1220.9 482.885 1218 483.314 1214.39 484.174L1213.22 484.496L1211.72 478.725L1212.75 478.373C1216.36 477.123 1220.11 476.498 1224 476.498ZM1230.12 498.529V494.398H1229.42C1225.47 494.398 1222.53 494.633 1220.6 495.102C1218.69 495.57 1217.73 496.361 1217.73 497.475C1217.73 498.178 1218.31 498.842 1219.49 499.467C1220.66 500.092 1222.09 500.404 1223.79 500.404C1226.2 500.404 1228.3 499.779 1230.12 498.529ZM1262 483.324C1260.32 483.324 1258.03 483.852 1255.14 484.906V506H1247.93V477.055H1253.29L1254.12 478.959C1257.57 477.318 1260.98 476.498 1264.34 476.498C1267.7 476.498 1270.33 477.465 1272.22 479.398C1275.85 477.484 1279.73 476.527 1283.85 476.527C1285.65 476.527 1287.23 476.742 1288.6 477.172C1289.96 477.602 1291.06 478.178 1291.88 478.9C1292.72 479.623 1293.39 480.531 1293.9 481.625C1294.43 482.699 1294.79 483.812 1294.98 484.965C1295.18 486.098 1295.28 487.387 1295.28 488.832V506H1288.07V488.92C1288.07 487.084 1287.58 485.697 1286.61 484.76C1285.65 483.803 1284.1 483.324 1281.95 483.324C1280.13 483.324 1277.79 483.852 1274.92 484.906C1275.09 485.922 1275.18 487.299 1275.18 489.037V506H1267.97V488.803C1267.97 485.15 1265.98 483.324 1262 483.324ZM1321.23 476.498C1322.91 476.498 1324.42 476.684 1325.75 477.055C1327.09 477.406 1328.2 477.865 1329.06 478.432C1329.94 478.979 1330.69 479.701 1331.31 480.6C1331.96 481.479 1332.45 482.328 1332.78 483.148C1333.11 483.949 1333.36 484.916 1333.54 486.049C1333.73 487.182 1333.85 488.139 1333.89 488.92C1333.93 489.701 1333.95 490.629 1333.95 491.703V494.984H1312.18C1312.59 496.43 1313.75 497.689 1315.67 498.764C1317.58 499.818 1320.1 500.346 1323.23 500.346C1325.43 500.346 1327.68 500.014 1329.96 499.35L1331.17 498.998L1332.6 504.564L1331.55 504.916C1328.29 506.029 1324.81 506.586 1321.12 506.586C1318.54 506.586 1316.25 506.303 1314.26 505.736C1312.27 505.17 1310.67 504.438 1309.46 503.539C1308.27 502.641 1307.28 501.557 1306.5 500.287C1305.74 499.018 1305.21 497.748 1304.92 496.479C1304.62 495.209 1304.48 493.852 1304.48 492.406C1304.48 490.258 1304.78 488.295 1305.38 486.518C1306.01 484.721 1306.85 483.217 1307.9 482.006C1308.98 480.775 1310.23 479.74 1311.65 478.9C1313.1 478.061 1314.62 477.455 1316.22 477.084C1317.83 476.693 1319.5 476.498 1321.23 476.498ZM1320.03 483.061C1317.79 483.061 1315.99 483.627 1314.64 484.76C1313.29 485.873 1312.49 487.27 1312.24 488.949H1326.86C1326.7 486.84 1326.04 485.336 1324.87 484.438C1323.7 483.52 1322.08 483.061 1320.03 483.061ZM1339.52 477.055H1347.22L1354.16 498.529L1363.16 477.055H1369.63L1376.49 498.588L1385.86 477.055H1393.6L1379.74 506H1373.18L1366.35 485.199L1357.21 506H1350.65L1339.52 477.055ZM1414.69 476.498C1419.54 476.498 1423.43 477.777 1426.38 480.336C1429.35 482.875 1430.83 486.43 1430.83 491C1430.83 495.805 1429.32 499.604 1426.29 502.396C1423.29 505.189 1419.23 506.586 1414.13 506.586C1409.29 506.586 1405.41 505.277 1402.5 502.66C1399.61 500.023 1398.17 496.41 1398.17 491.82C1398.17 487.113 1399.64 483.383 1402.59 480.629C1405.56 477.875 1409.59 476.498 1414.69 476.498ZM1414.22 483.002C1412.72 483.002 1411.3 483.285 1409.97 483.852C1408.65 484.418 1407.52 485.336 1406.61 486.605C1405.71 487.875 1405.26 489.369 1405.26 491.088C1405.26 493.627 1406.14 495.766 1407.89 497.504C1409.65 499.223 1411.94 500.082 1414.75 500.082C1417.31 500.082 1419.45 499.33 1421.17 497.826C1422.88 496.322 1423.74 494.33 1423.74 491.85C1423.74 490.424 1423.46 489.135 1422.89 487.982C1422.33 486.811 1421.59 485.873 1420.67 485.17C1419.75 484.467 1418.73 483.93 1417.62 483.559C1416.51 483.188 1415.38 483.002 1414.22 483.002ZM1445.6 478.607C1448.65 477.201 1451.9 476.498 1455.36 476.498C1457.56 476.498 1459.57 476.918 1461.39 477.758L1462.42 478.227L1460.13 484.232L1458.99 483.793C1457.62 483.266 1456.14 483.002 1454.54 483.002C1451.98 483.002 1449.52 483.461 1447.15 484.379V506H1439.95V477.055H1444.75L1445.6 478.607ZM1474.93 488.686L1488.81 476.469H1497.51L1482.57 489.711L1497.95 506H1489.11L1474.93 491.586V506H1467.72V461.732H1474.93V488.686Z" fill="#434242"/>
</g>
<defs>
<filter id="filter0_i_25_31" x="119" y="114" width="411" height="415" filterUnits="userSpaceOnUse" color-interpolation-filters="sRGB">
<feFlood flood-opacity="0" result="BackgroundImageFix"/>
<feBlend mode="normal" in="SourceGraphic" in2="BackgroundImageFix" result="shape"/>
<feColorMatrix in="SourceAlpha" type="matrix" values="0 0 0 0 0 0 0 0 0 0 0 0 0 0 0 0 0 0 127 0" result="hardAlpha"/>
<feOffset dy="4"/>
<feGaussianBlur stdDeviation="2.6"/>
<feComposite in2="hardAlpha" operator="arithmetic" k2="-1" k3="1"/>
<feColorMatrix type="matrix" values="0 0 0 0 0 0 0 0 0 0 0 0 0 0 0 0 0 0 0.25 0"/>
<feBlend mode="normal" in2="shape" result="effect1_innerShadow_25_31"/>
</filter>
<filter id="filter1_i_25_31" x="576.396" y="147.8" width="1036.38" height="93.4697" filterUnits="userSpaceOnUse" color-interpolation-filters="sRGB">
<feFlood flood-opacity="0" result="BackgroundImageFix"/>
<feBlend mode="normal" in="SourceGraphic" in2="BackgroundImageFix" result="shape"/>
<feColorMatrix in="SourceAlpha" type="matrix" values="0 0 0 0 0 0 0 0 0 0 0 0 0 0 0 0 0 0 127 0" result="hardAlpha"/>
<feOffset dy="6"/>
<feGaussianBlur stdDeviation="1"/>
<feComposite in2="hardAlpha" operator="arithmetic" k2="-1" k3="1"/>
<feColorMatrix type="matrix" values="0 0 0 0 0.173077 0 0 0 0 0.173077 0 0 0 0 0.173077 0 0 0 1 0"/>
<feBlend mode="normal" in2="shape" result="effect1_innerShadow_25_31"/>
</filter>
<filter id="filter2_i_25_31" x="583.955" y="269.848" width="483.501" height="94.4219" filterUnits="userSpaceOnUse" color-interpolation-filters="sRGB">
<feFlood flood-opacity="0" result="BackgroundImageFix"/>
<feBlend mode="normal" in="SourceGraphic" in2="BackgroundImageFix" result="shape"/>
<feColorMatrix in="SourceAlpha" type="matrix" values="0 0 0 0 0 0 0 0 0 0 0 0 0 0 0 0 0 0 127 0" result="hardAlpha"/>
<feOffset dy="6"/>
<feGaussianBlur stdDeviation="1"/>
<feComposite in2="hardAlpha" operator="arithmetic" k2="-1" k3="1"/>
<feColorMatrix type="matrix" values="0 0 0 0 0.173077 0 0 0 0 0.173077 0 0 0 0 0.173077 0 0 0 1 0"/>
<feBlend mode="normal" in2="shape" result="effect1_innerShadow_25_31"/>
</filter>
<filter id="filter3_i_25_31" x="576.273" y="461.732" width="921.68" height="46.8535" filterUnits="userSpaceOnUse" color-interpolation-filters="sRGB">
<feFlood flood-opacity="0" result="BackgroundImageFix"/>
<feBlend mode="normal" in="SourceGraphic" in2="BackgroundImageFix" result="shape"/>
<feColorMatrix in="SourceAlpha" type="matrix" values="0 0 0 0 0 0 0 0 0 0 0 0 0 0 0 0 0 0 127 0" result="hardAlpha"/>
<feOffset dy="6"/>
<feGaussianBlur stdDeviation="1"/>
<feComposite in2="hardAlpha" operator="arithmetic" k2="-1" k3="1"/>
<feColorMatrix type="matrix" values="0 0 0 0 0.173077 0 0 0 0 0.173077 0 0 0 0 0.173077 0 0 0 1 0"/>
<feBlend mode="normal" in2="shape" result="effect1_innerShadow_25_31"/>
</filter>
</defs>
</svg>
