<?xml version="1.0" encoding="UTF-8"?>
<svg id="SVGRoot" width="4096" height="4096" version="1.1" viewBox="0 0 4096 4096" xml:space="preserve" xmlns="http://www.w3.org/2000/svg" xmlns:cc="http://creativecommons.org/ns#" xmlns:dc="http://purl.org/dc/elements/1.1/" xmlns:rdf="http://www.w3.org/1999/02/22-rdf-syntax-ns#"><metadata><rdf:RDF><cc:Work rdf:about=""><dc:format>image/svg+xml</dc:format><dc:type rdf:resource="http://purl.org/dc/dcmitype/StillImage"/></cc:Work></rdf:RDF></metadata><path d="m0 0h4096v4096h-4096z" fill="#0c2a27" stroke-width="2.8444" style="mix-blend-mode:soft-light"/><g fill="none" stroke-linecap="round" stroke-linejoin="round" stroke-width="6.4"><g stroke="#35b9ab"><path d="m1348.9 2677.1 9e-4 -560.9h-277.57v320.53l138.78 240.38v240.38" opacity=".5" style="mix-blend-mode:hard-light"/><path d="m1071.4 2116.1 138.78 240.38v560.9l138.78-240.38v-560.9z" opacity=".5" style="mix-blend-mode:hard-light"/><path d="m3708.2 2718.3 2e-4 137.12h277.57l-2e-4 -137.12-138.78-240.38z" opacity=".5" style="mix-blend-mode:hard-light"/><path d="m3846.8 2477.9 138.78 240.38h-277.57z" opacity=".5" style="mix-blend-mode:hard-light"/><path d="m1210 2356.5 138.78-240.38h-277.57z" opacity=".5" style="mix-blend-mode:hard-light"/><path d="m99.84 2967.5v-469.38l138.78-240.38-1e-3 -378.71h-277.57v848.09" opacity=".5" style="mix-blend-mode:hard-light"/><path d="m-39.04 1879 138.78 240.38v378.71l138.78-240.38v-378.71z" opacity=".5" style="mix-blend-mode:hard-light"/><path d="m99.84 2119.5 138.78-240.38h-277.57z" opacity=".5" style="mix-blend-mode:hard-light"/><path d="m516.05 2498.1 1e-3 -455.77h-277.57v215.38l138.78 240.38-2e-3 240.38" opacity=".5" style="mix-blend-mode:hard-light"/><path d="m238.51 2042.5 138.78 240.38v455.77l138.78-240.38 1e-3 -455.77z" opacity=".5" style="mix-blend-mode:hard-light"/><path d="m377.39 2282.9 138.78-240.38h-277.57z" opacity=".5" style="mix-blend-mode:hard-light"/></g><g stroke="#73ba25"><path d="m654.93 2738.6 2e-3 -286.85 138.78-240.38-1e-3 -510.51h-277.57l-2e-3 797.35" opacity=".5" style="mix-blend-mode:hard-light"/><path d="m516.05 1700.9 138.78 240.38 1e-3 510.51 138.78-240.38-1e-3 -510.51z" opacity=".5" style="mix-blend-mode:hard-light"/><path d="m654.93 1941.1 138.78-240.38h-277.57z" opacity=".5" style="mix-blend-mode:hard-light"/></g><g stroke="#35b9ab"><path d="m1071.4 2436.7v-440.7h-277.57v215.38l138.78 240.38v225.32" opacity=".5" style="mix-blend-mode:hard-light"/><path d="m793.6 1995.9 138.78 240.38v440.7l138.78-240.38v-440.7z" opacity=".5" style="mix-blend-mode:hard-light"/><path d="m932.48 2236.4 138.78-240.38h-277.57z" opacity=".5" style="mix-blend-mode:hard-light"/><path d="m2597.8 2713.4v-240.38l138.78-240.38v-95.192h-277.57v335.57" opacity=".5" style="mix-blend-mode:hard-light"/><path d="m2459.1 2137.4 138.78 240.38v95.194l138.78-240.38v-95.192z" opacity=".5" style="mix-blend-mode:hard-light"/><path d="m2597.8 2377.8 138.78-240.38h-277.57z" opacity=".5" style="mix-blend-mode:hard-light"/></g><g stroke="#73ba25"><path d="m1487.6 2917.3v-465.71l138.78-244.05v-331.88h-277.57v801.28" opacity=".5" style="mix-blend-mode:hard-light"/><path d="m1348.9 1875.8 138.78 240.38v331.88l138.78-240.38v-331.88z" opacity=".5" style="mix-blend-mode:hard-light"/><path d="m1487.6 2116.1 138.78-240.38h-277.57z" opacity=".5" style="mix-blend-mode:hard-light"/></g><g stroke="#21a4df"><path d="m1904 2448-5e-4 -408.94h-277.57l-8e-4 168.56 138.78 240.38v240.38" opacity=".5" style="mix-blend-mode:hard-light"/><path d="m1626.5 2039 138.78 240.38-6e-4 408.94 138.78-240.38 7e-4 -408.94z" opacity=".5" style="mix-blend-mode:hard-light"/><path d="m1765.1 2279.5 138.78-240.38h-277.57z" opacity=".5" style="mix-blend-mode:hard-light"/></g><g stroke="#35b9ab"><path d="m2181.5 2688.4v-827.95h-277.57l7e-4 587.56 138.78 240.38v240.38" opacity=".5" style="mix-blend-mode:hard-light"/><path d="m1904 1860.5 138.78 240.38-6e-4 827.95 138.78-240.38-6e-4 -827.95z" opacity=".5" style="mix-blend-mode:hard-light"/><path d="m2042.7 2100.9 138.78-240.38h-277.57z" opacity=".5" style="mix-blend-mode:hard-light"/><path d="m2320.2 2928.9-2e-4 -215.38 138.78-240.38v-455.74h-277.57v671.13" opacity=".5" style="mix-blend-mode:hard-light"/><path d="m2181.5 2017.3 138.78 240.38-2e-4 455.74 138.78-240.38v-455.74z" opacity=".5" style="mix-blend-mode:hard-light"/><path d="m2320.2 2257.7 138.78-240.38h-277.57z" opacity=".5" style="mix-blend-mode:hard-light"/></g><g stroke="#fff"><path d="m1071.4 1526.6v240.38l138.78-240.38-1e-3 -455.74h-277.57l1e-3 215.38" opacity=".5" style="mix-blend-mode:hard-light"/><path d="m932.48 1070.7 138.78 240.38-2e-4 455.74 138.78-240.38v-455.74z" opacity=".5" style="mix-blend-mode:hard-light"/><path d="m1071.4 1311.1 138.78-240.38h-277.57z" opacity=".5" style="mix-blend-mode:hard-light"/></g><g stroke="#35b9ab"><path d="m3985.7 2718.3 6e-4 240.38 138.78-240.38v-455.74h-277.57v215.38" opacity=".5" style="mix-blend-mode:hard-light"/><path d="m3846.8 2262.4 138.78 240.38-6e-4 455.77 138.78-240.38-7e-4 -455.77z" opacity=".5" style="mix-blend-mode:hard-light"/><path d="m3985.7 2502.8 138.78-240.38h-277.57z" opacity=".5" style="mix-blend-mode:hard-light"/><path d="m2875.5 2473 4e-4 181.46 138.78-240.38v-517.03h-277.57v335.57" opacity=".5" style="mix-blend-mode:hard-light"/><path d="m2736.6 1897 138.78 240.38-6e-4 517.03 138.78-240.38-7e-4 -517.03z" opacity=".5" style="mix-blend-mode:hard-light"/><path d="m2875.5 2137.4 138.78-240.38h-277.57z" opacity=".5" style="mix-blend-mode:hard-light"/><path d="m3153.1 2654.5-5e-4 120.19 138.78-240.38 2e-4 -335.57h-277.57v215.38" opacity=".5" style="mix-blend-mode:hard-light"/><path d="m3014.2 2198.6 138.78 240.38v335.57l138.78-240.38v-335.57z" opacity=".5" style="mix-blend-mode:hard-light"/><path d="m3153.1 2439 138.78-240.38h-277.57z" opacity=".5" style="mix-blend-mode:hard-light"/></g><g stroke="#21a4df"><path d="m3430.6 2774.6v-210.79l138.78-240.38v-335.57h-277.57v546.35" opacity=".5" style="mix-blend-mode:hard-light"/><path d="m3291.7 1987.8 138.78 240.38v335.57l138.78-240.38v-335.57z" opacity=".5" style="mix-blend-mode:hard-light"/><path d="m3430.6 2228.3 138.78-240.38h-277.57z" opacity=".5" style="mix-blend-mode:hard-light"/></g><g stroke="#73ba25"><path d="m3708.2 2563.8v154.33l138.78-240.38v-335.55h-277.57v181.23" opacity=".5" style="mix-blend-mode:hard-light"/><path d="m3569.3 2142.3 138.78 240.38v335.55l138.78-240.38v-335.55z" opacity=".5" style="mix-blend-mode:hard-light"/><path d="m3708.2 2382.7 138.78-240.38h-277.57z" opacity=".5" style="mix-blend-mode:hard-light"/></g><path d="m3430.6 2563.8v487.47h277.57v-487.47l-138.78-240.38z" opacity=".5" stroke="#35b9ab" style="mix-blend-mode:hard-light"/><path d="m3569.3 2323.4 138.78 240.38h-277.57z" opacity=".5" stroke="#35b9ab" style="mix-blend-mode:hard-light"/><path d="m3430.6 4095.9v-1321.2l-138.78-240.38-138.78 240.36v276.67l138.78 240.38 8e-4 804.2" opacity=".5" stroke="#73ba25" style="mix-blend-mode:hard-light"/><path d="m3291.7 2534.2 138.78 240.38h-277.57z" opacity=".5" stroke="#73ba25" style="mix-blend-mode:hard-light"/><g stroke="#35b9ab"><path d="m2875.5 2654.5v246.04h277.57v-246.04l-138.78-240.38z" opacity=".5" style="mix-blend-mode:hard-light"/><path d="m3014.2 2414.1 138.78 240.38h-277.57z" opacity=".5" style="mix-blend-mode:hard-light"/><path d="m2597.8 2473v120.19h277.57v-120.19l-138.78-240.38z" opacity=".5" style="mix-blend-mode:hard-light"/><path d="m2736.6 2232.5 138.78 240.38h-277.57z" opacity=".5" style="mix-blend-mode:hard-light"/></g><path d="m2320.2 2713.4 4e-4 307.31h277.57l-4e-4 -307.31-138.78-240.38z" opacity=".5" stroke="#21a4df" style="mix-blend-mode:hard-light"/><path d="m2459.1 2473 138.78 240.38h-277.57z" opacity=".5" stroke="#21a4df" style="mix-blend-mode:hard-light"/><path d="m2320.2 4096.1-2e-4 -1167.1-138.78-240.38-138.79 240.38 2e-4 1167.1" opacity=".5" stroke="#35b9ab" style="mix-blend-mode:hard-light"/><path d="m2181.5 2688.4 138.78 240.38h-277.57z" opacity=".5" stroke="#35b9ab" style="mix-blend-mode:hard-light"/><path d="m2042.7 4096.1v-1407.5l-138.78-240.38-138.78 240.36-6e-4 139.32 138.78 240.38v1027.8" opacity=".5" stroke="#fff" style="mix-blend-mode:hard-light"/><path d="m1904 2448 138.78 240.38h-277.57z" opacity=".5" stroke="#fff" style="mix-blend-mode:hard-light"/><path d="m1487.6 2451.6-2e-4 160.64h277.57v-164.31l-138.78-240.38z" opacity=".5" stroke="#35b9ab" style="mix-blend-mode:hard-light"/><path d="m1626.5 2207.6 138.78 240.38h-277.57z" opacity=".5" stroke="#35b9ab" style="mix-blend-mode:hard-light"/><path d="m1487.6 4095.9-7e-4 -1178.5-138.78-240.38-138.79 240.38 7e-4 1178.5" opacity=".5" stroke="#21a4df" style="mix-blend-mode:hard-light"/><path d="m1348.9 2677.1 138.78 240.38h-277.57z" opacity=".5" stroke="#21a4df" style="mix-blend-mode:hard-light"/><g stroke="#35b9ab"><path d="m932.48 2677.1 2e-3 120.19h277.57v-120.19l-138.78-240.38z" opacity=".5" style="mix-blend-mode:hard-light"/><path d="m1071.4 2436.7 138.78 240.38h-277.57z" opacity=".5" style="mix-blend-mode:hard-light"/><path d="m654.93 2451.6-8.5e-4 143.42h277.57l8.5e-4 -143.42-138.78-240.38z" opacity=".5" style="mix-blend-mode:hard-light"/><path d="m793.6 2211.4 138.78 240.38h-277.57z" opacity=".5" style="mix-blend-mode:hard-light"/><path d="m377.39 2738.6v182.53h277.57v-182.53l-138.78-240.38z" opacity=".5" style="mix-blend-mode:hard-light"/><path d="m516.05 2498.1 138.78 240.38h-277.57z" opacity=".5" style="mix-blend-mode:hard-light"/></g><path d="m377.39 4095.9v-1597.7l-138.78-240.38-138.79 240.38v1597.7" opacity=".5" stroke="#73ba25" style="mix-blend-mode:hard-light"/><path d="m238.51 2257.7 138.78 240.38h-277.57z" opacity=".5" stroke="#73ba25" style="mix-blend-mode:hard-light"/><path d="m99.84 4095.9 2.13e-4 -1128.4-138.78-240.38-138.79 240.38-2.1e-4 1128.4" opacity=".5" stroke="#35b9ab" style="mix-blend-mode:hard-light"/><path d="m-39.04 2727.3 138.78 240.38h-277.57z" opacity=".5" stroke="#35b9ab" style="mix-blend-mode:hard-light"/><path d="m238.51 1409.7v632.7h277.57v-632.7l-138.78-240.38z" opacity=".5" stroke="#21a4df" style="mix-blend-mode:hard-light"/><path d="m377.39 1169.3 138.78 240.38h-277.57z" opacity=".5" stroke="#21a4df" style="mix-blend-mode:hard-light"/><g stroke="#35b9ab"><path d="m793.6 1526.6 1e-3 469.38h277.57v-469.38l-138.78-240.38z" opacity=".5" style="mix-blend-mode:hard-light"/><path d="m932.48 1286.2 138.78 240.38h-277.57z" opacity=".5" style="mix-blend-mode:hard-light"/><path d="m1071.4 1767v349.18h277.57v-349.18l-138.78-240.38z" opacity=".5" style="mix-blend-mode:hard-light"/><path d="m1210 1526.6 138.78 240.38h-277.57z" opacity=".5" style="mix-blend-mode:hard-light"/><path d="m4263.3 4095.9v-1137.3l-138.78-240.38-138.78 240.36-2e-4 40.783 138.78 240.38 4e-4 856.18" opacity=".5" style="mix-blend-mode:hard-light"/><path d="m4124.4 2718.3 138.78 240.38h-277.57z" opacity=".5" style="mix-blend-mode:hard-light"/></g><g stroke="#73ba25"><path d="m793.6 3291.3-1e-3 -120.19 138.78-240.38-1e-3 -335.57h-277.57l1e-3 455.74" opacity=".5" style="mix-blend-mode:hard-light"/><path d="m654.93 2595.2 138.78 240.38v335.57l138.78-240.38-1e-3 -335.57z" opacity=".5" style="mix-blend-mode:hard-light"/><path d="m793.6 2835.4 138.78-240.38h-277.57z" opacity=".5" style="mix-blend-mode:hard-light"/></g><g stroke="#fff"><path d="m516.05 4095.9v-804.66l138.78-240.38 8.5e-4 -129.8h-277.57v1174.8" opacity=".5" style="mix-blend-mode:hard-light"/><path d="m377.39 2921.2 138.78 240.38-8.5e-4 129.8 138.78-240.38 8.5e-4 -129.8z" opacity=".5" style="mix-blend-mode:hard-light"/><path d="m516.05 3161.4 138.78-240.38h-277.57z" opacity=".5" style="mix-blend-mode:hard-light"/></g><g stroke="#35b9ab"><path d="m1210 4095.9v-1298.7h-277.57l6.4e-4 133.48 138.78 240.38 6e-4 924.84" opacity=".5" style="mix-blend-mode:hard-light"/><path d="m1210 4096.1v-1298.7h-277.57l138.78 240.38v1058.3" opacity=".5" style="mix-blend-mode:hard-light"/><path d="m1071.4 3037.7 138.78-240.38h-277.57z" opacity=".5" style="mix-blend-mode:hard-light"/><path d="m1626.5 4095.9v-1027.8l138.78-240.38-6e-4 -215.38h-277.57l8e-4 1483.6" opacity=".5" style="mix-blend-mode:hard-light"/><path d="m1487.6 2612.3 138.78 240.38-6e-4 215.38 138.78-240.38-7e-4 -215.38z" opacity=".5" style="mix-blend-mode:hard-light"/><path d="m1626.5 2852.7 138.78-240.38h-277.57z" opacity=".5" style="mix-blend-mode:hard-light"/><path d="m793.6 4096.1 1e-3 -804.66-138.78-240.38-138.79 240.38-1e-3 804.66" opacity=".5" style="mix-blend-mode:hard-light"/><path d="m654.93 3050.9 138.78 240.38h-277.57z" opacity=".5" style="mix-blend-mode:hard-light"/><path d="m1071.1 4095.9-4e-4 -924.84-138.78-240.38-138.79 240.38 4.3e-4 924.84" opacity=".5" style="mix-blend-mode:hard-light"/><path d="m932.48 2930.8 138.78 240.38h-277.57z" opacity=".5" style="mix-blend-mode:hard-light"/><path d="m1904 4096.1v-1027.8l-138.78-240.38-138.79 240.38v1027.8" opacity=".5" style="mix-blend-mode:hard-light"/><path d="m1765.1 2827.7 138.78 240.38h-277.57z" opacity=".5" style="mix-blend-mode:hard-light"/><path d="m2736.6 4095.9v-864.3l138.78-240.38v-398.04h-277.57l6e-4 1502.7" opacity=".5" style="mix-blend-mode:hard-light"/><path d="m2597.8 2593.3 138.78 240.38v398.04l138.78-240.38v-398.04z" opacity=".5" style="mix-blend-mode:hard-light"/><path d="m2736.6 2833.5 138.78-240.38h-277.57z" opacity=".5" style="mix-blend-mode:hard-light"/></g><g stroke="#fff"><path d="m3014.2 3231.6v60.094l138.78-240.38v-150.82h-277.57l7e-4 90.728" opacity=".5" style="mix-blend-mode:hard-light"/><path d="m2875.5 2900.5 138.78 240.38v150.82l138.78-240.38v-150.82z" opacity=".5" style="mix-blend-mode:hard-light"/><path d="m3014.2 3140.9 138.78-240.38h-277.57z" opacity=".5" style="mix-blend-mode:hard-light"/></g><g stroke="#35b9ab"><path d="m3708.2 4095.9v-1044.6h-277.57v1044.6" opacity=".5" style="mix-blend-mode:hard-light"/><path d="m3708.2 4095.9v-1044.6l-277.57-0.021 138.78 240.38v804.2" opacity=".5" style="mix-blend-mode:hard-light"/><path d="m3569.3 3291.7 138.78-240.38h-277.57z" opacity=".5" style="mix-blend-mode:hard-light"/></g><g stroke="#73ba25"><path d="m3846.8 4095.9v-856.18l138.78-240.38 8e-4 -144.04h-277.57v1240.6" opacity=".5" style="mix-blend-mode:hard-light"/><path d="m3708.2 2855.3 138.78 240.38v144.04l138.78-240.38 9e-4 -144.04z" opacity=".5" style="mix-blend-mode:hard-light"/><path d="m3846.8 3095.7 138.78-240.38h-277.57z" opacity=".5" style="mix-blend-mode:hard-light"/></g><g stroke="#35b9ab"><path d="m2597.8 4095.9v-1075.2h-277.57l2e-4 1075.2" opacity=".5" style="mix-blend-mode:hard-light"/><path d="m2597.8 4096.1v-1075.2l-277.57-0.021 138.78 240.38v834.84" opacity=".5" style="mix-blend-mode:hard-light"/><path d="m2459.1 3261 138.78-240.38h-277.57z" opacity=".5" style="mix-blend-mode:hard-light"/><path d="m3014.2 4095.9v-864.3l-138.78-240.38-138.79 240.38v864.3" opacity=".5" style="mix-blend-mode:hard-light"/><path d="m2875.5 2991.1 138.78 240.38h-277.57z" opacity=".5" style="mix-blend-mode:hard-light"/><path d="m3291.7 4096.1-6e-4 -804.2-138.78-240.38-138.79 240.38 6e-4 804.2" opacity=".5" style="mix-blend-mode:hard-light"/><path d="m3153.1 3051.3 138.78 240.38h-277.57z" opacity=".5" style="mix-blend-mode:hard-light"/></g><path d="m4124.4 4095.9v-856.18l-138.78-240.38-138.79 240.38v856.18" opacity=".5" stroke="#21a4df" style="mix-blend-mode:hard-light"/><path d="m3985.7 2999.3 138.78 240.38h-277.57z" opacity=".5" stroke="#21a4df" style="mix-blend-mode:hard-light"/><path d="m3014.2 1987.8 2e-4 210.79h277.57l-2e-4 -210.79-138.78-240.38z" opacity=".5" stroke="#35b9ab" style="mix-blend-mode:hard-light"/><path d="m3153.1 1747.6 138.78 240.38h-277.57z" opacity=".5" stroke="#35b9ab" style="mix-blend-mode:hard-light"/><path d="m2459.1 1748.5v388.95h277.57v-388.95l-138.78-240.38z" opacity=".5" stroke="#fff" style="mix-blend-mode:hard-light"/><path d="m2597.8 1508.1 138.78 240.38h-277.57z" opacity=".5" stroke="#fff" style="mix-blend-mode:hard-light"/><g stroke="#35b9ab"><path d="m3569.3 1916.6v225.75h277.57v-225.75l-138.78-240.38z" opacity=".5" style="mix-blend-mode:hard-light"/><path d="m3708.2 1676.2 138.78 240.38h-277.57z" opacity=".5" style="mix-blend-mode:hard-light"/><path d="m3846.8 2477.9 138.78 240.38h-277.57z" opacity=".5" style="mix-blend-mode:hard-light"/><path d="m3569.3 2323.4 138.78 240.38h-277.57z" opacity=".5" style="mix-blend-mode:hard-light"/></g><path d="m3291.7 2534.2 138.78 240.38h-277.57z" opacity=".5" stroke="#73ba25" style="mix-blend-mode:hard-light"/><g stroke="#35b9ab"><path d="m3014.2 2414.1 138.78 240.38h-277.57z" opacity=".5" style="mix-blend-mode:hard-light"/><path d="m2736.6 2232.5 138.78 240.38h-277.57z" opacity=".5" style="mix-blend-mode:hard-light"/><path d="m2181.5 2688.4 138.78 240.38h-277.57z" opacity=".5" style="mix-blend-mode:hard-light"/></g><path d="m1904 2448 138.78 240.38h-277.57z" opacity=".5" stroke="#fff" style="mix-blend-mode:hard-light"/><path d="m2597.8 1508.3 138.78 240.38h-277.57z" opacity=".5" stroke="#fff" style="mix-blend-mode:hard-light"/><path d="m1626.5 2207.6 138.78 240.38h-277.57z" opacity=".5" stroke="#35b9ab" style="mix-blend-mode:hard-light"/><path d="m1348.9 2677.1 138.78 240.38h-277.57z" opacity=".5" stroke="#21a4df" style="mix-blend-mode:hard-light"/><g stroke="#35b9ab"><path d="m1071.4 2436.7 138.78 240.38h-277.57z" opacity=".5" style="mix-blend-mode:hard-light"/><path d="m793.6 2211.4 138.78 240.38h-277.57z" opacity=".5" style="mix-blend-mode:hard-light"/><path d="m516.05 2498.1 138.78 240.38h-277.57z" opacity=".5" style="mix-blend-mode:hard-light"/></g><path d="m238.51 2257.7 138.78 240.38h-277.57z" opacity=".5" stroke="#73ba25" style="mix-blend-mode:hard-light"/><path d="m-39.04 2727.3 138.78 240.38h-277.57z" opacity=".5" stroke="#35b9ab" style="mix-blend-mode:hard-light"/><path d="m377.39 1169.3 138.78 240.38h-277.57z" opacity=".5" stroke="#21a4df" style="mix-blend-mode:hard-light"/><g stroke="#35b9ab"><path d="m932.48 1286.2 138.78 240.38h-277.57z" opacity=".5" style="mix-blend-mode:hard-light"/><path d="m1210 1526.6 138.78 240.38h-277.57z" opacity=".5" style="mix-blend-mode:hard-light"/><path d="m4124.4 2718.3 138.78 240.38h-277.57z" opacity=".5" style="mix-blend-mode:hard-light"/><path d="m654.93 3050.9 138.78 240.38h-277.57z" opacity=".5" style="mix-blend-mode:hard-light"/><path d="m932.48 2930.8 138.78 240.38h-277.57z" opacity=".5" style="mix-blend-mode:hard-light"/><path d="m1765.1 2827.7 138.78 240.38h-277.57z" opacity=".5" style="mix-blend-mode:hard-light"/><path d="m2875.5 2991.1 138.78 240.38h-277.57z" opacity=".5" style="mix-blend-mode:hard-light"/><path d="m3153.1 3051.3 138.78 240.38h-277.57z" opacity=".5" style="mix-blend-mode:hard-light"/></g><path d="m3985.7 2999.3 138.78 240.38h-277.57z" opacity=".5" stroke="#21a4df" style="mix-blend-mode:hard-light"/><path d="m3153.1 1747.6 138.78 240.38h-277.57z" opacity=".5" stroke="#35b9ab" style="mix-blend-mode:hard-light"/><path d="m3708.2 1676.2 138.78 240.38h-277.57z" opacity=".5" stroke="#35b9ab" style="mix-blend-mode:hard-light"/><path d="m2459.1 2473 138.78 240.38h-277.57z" opacity=".5" stroke="#21a4df" style="mix-blend-mode:hard-light"/></g></svg>
